<?xml version="1.0" encoding="UTF-8" standalone="no"?>
<svg
   xmlns:dc="http://purl.org/dc/elements/1.1/"
   xmlns:cc="http://creativecommons.org/ns#"
   xmlns:rdf="http://www.w3.org/1999/02/22-rdf-syntax-ns#"
   xmlns:svg="http://www.w3.org/2000/svg"
   xmlns="http://www.w3.org/2000/svg"
   xmlns:sodipodi="http://sodipodi.sourceforge.net/DTD/sodipodi-0.dtd"
   xmlns:inkscape="http://www.inkscape.org/namespaces/inkscape"
   width="142.05431mm"
   height="18mm"
   viewBox="0 0 142.0543 18"
   version="1.1"
   id="svg8"
   inkscape:version="1.0.2 (e86c870879, 2021-01-15, custom)"
   sodipodi:docname="logo.svg">
  <defs
     id="defs2">
    <rect
       x="84.063271"
       y="50.328396"
       width="131.95947"
       height="20.782351"
       id="rect870" />
  </defs>
  <sodipodi:namedview
     id="base"
     pagecolor="#ffffff"
     bordercolor="#666666"
     borderopacity="1.0"
     inkscape:pageopacity="0.0"
     inkscape:pageshadow="2"
     inkscape:zoom="1.5659322"
     inkscape:cx="181.80947"
     inkscape:cy="149.06123"
     inkscape:document-units="mm"
     inkscape:current-layer="g864"
     inkscape:document-rotation="0"
     showgrid="false"
     fit-margin-top="0"
     fit-margin-left="0"
     fit-margin-right="0"
     fit-margin-bottom="0"
     inkscape:window-width="1920"
     inkscape:window-height="1027"
     inkscape:window-x="-8"
     inkscape:window-y="-8"
     inkscape:window-maximized="1">
    <inkscape:grid
       type="xygrid"
       id="grid833"
       originx="-27.781243"
       originy="-54.901057" />
  </sodipodi:namedview>
  <metadata
     id="metadata5">
    <rdf:RDF>
      <cc:Work
         rdf:about="">
        <dc:format>image/svg+xml</dc:format>
        <dc:type
           rdf:resource="http://purl.org/dc/dcmitype/StillImage" />
        <dc:title></dc:title>
      </cc:Work>
    </rdf:RDF>
  </metadata>
  <g
     inkscape:label="Layer 1"
     inkscape:groupmode="layer"
     id="layer1"
     transform="translate(-27.781247,-54.901041)">
    <g
       id="g864"
       transform="translate(-22.489585,7.2760413)">
      <rect
         style="fill:#2c5aa0;fill-opacity:1;stroke-width:0.248422"
         id="rect837"
         width="24"
         height="18"
         x="50.270832"
         y="47.625"
         ry="1.4578177"
         rx="1.3606299" />
      <rect
         style="fill:#ffffff;fill-opacity:1;stroke-width:0.203905"
         id="rect837-0"
         width="22"
         height="13.229165"
         x="51.270832"
         y="48.624958"
         ry="1"
         rx="0.92388445" />
      <path
         style="fill:none;stroke:#1d4f91;stroke-width:1.5;stroke-linecap:round;stroke-linejoin:round;stroke-miterlimit:4;stroke-dasharray:none;stroke-opacity:1"
         d="m 55.656249,58.546833 2.645833,-2.645834 1.322917,1.322917 2.645833,-2.645833 2.645833,2.645833 3.96875,-5.291667"
         id="path859" />
      <g
         aria-label="POLITE INVESTOR"
         transform="translate(-6.1938333,-1.2405366)"
         id="text868"
         style="font-size:12.7px;line-height:1.25;font-family:sans-serif;letter-spacing:0.529167px;white-space:pre;shape-inside:url(#rect870)">
        <path
           d="m 86.5517,60.83522 q 0,0.4064 0.1016,0.5969 0.1016,0.1778 0.4064,0.254 0.3048,0.0762 0.9525,0.0762 0.0381,0 0.0381,0.0762 0,0.0762 -0.0381,0.0762 -0.5207,0 -0.8128,-0.0127 l -1.1049,-0.0127 -0.8636,0.0127 q -0.2286,0.0127 -0.6477,0.0127 -0.0381,0 -0.0381,-0.0762 0,-0.0762 0.0381,-0.0762 0.4572,0 0.6731,-0.0635 0.2159,-0.0635 0.2921,-0.2413 0.0762,-0.1905 0.0762,-0.5715 v -5.8801 q 0,-0.381 -0.0762,-0.5588 -0.0762,-0.1778 -0.2921,-0.2413 -0.2159,-0.0762 -0.6731,-0.0762 -0.0381,0 -0.0381,-0.0762 0,-0.0762 0.0381,-0.0762 l 0.6477,0.0127 q 0.5334,0.0254 0.8509,0.0254 0.3048,0 0.7239,-0.0381 0.1524,0 0.4699,-0.0127 0.3302,-0.0254 0.5715,-0.0254 1.1811,0 1.8923,0.5334 0.7239,0.5207 0.7239,1.5875 0,0.8255 -0.4191,1.397 -0.4064,0.5715 -1.0541,0.8509 -0.635,0.2794 -1.3208,0.2794 -0.3683,0 -0.6223,-0.0635 -0.0254,0 -0.0254,-0.0635 0,-0.0381 0.0127,-0.0762 0.0254,-0.0381 0.0508,-0.0254 0.1905,0.0508 0.4445,0.0508 0.7874,0 1.3335,-0.5461 0.5461,-0.5461 0.5461,-1.5748 0,-1.0033 -0.5207,-1.5748 -0.5207,-0.5715 -1.3716,-0.5715 -0.4191,0 -0.6096,0.0635 -0.1905,0.0508 -0.2794,0.2413 -0.0762,0.1778 -0.0762,0.5842 z"
           style="font-style:normal;font-variant:normal;font-weight:500;font-stretch:normal;font-size:12.7px;font-family:'Cormorant Garamond';-inkscape-font-specification:'Cormorant Garamond Medium'"
           id="path964" />
        <path
           d="m 96.148651,62.06712 q -1.1811,0 -2.1082,-0.5461 -0.9144,-0.5588 -1.4224,-1.4986 -0.4953,-0.9525 -0.4953,-2.0701 0,-1.3081 0.6604,-2.2352 0.6604,-0.9398 1.6891,-1.4097 1.0414,-0.4699 2.1209,-0.4699 1.2065,0 2.1209,0.5715 0.914399,0.5588 1.396999,1.4859 0.4953,0.9271 0.4953,1.9685 0,1.1557 -0.6096,2.1209 -0.6096,0.9652 -1.638299,1.524 -1.016,0.5588 -2.2098,0.5588 z m 0.4445,-0.2794 q 0.8382,0 1.4986,-0.4191 0.6731,-0.4191 1.054099,-1.2192 0.3937,-0.8128 0.3937,-1.9304 0,-1.1811 -0.4318,-2.1082 -0.419099,-0.9271 -1.206499,-1.4478 -0.7874,-0.5207 -1.8288,-0.5207 -1.3589,0 -2.1209,0.9017 -0.762,0.889 -0.762,2.4638 0,1.1938 0.4318,2.1717 0.4318,0.9779 1.2065,1.5494 0.7747,0.5588 1.7653,0.5588 z"
           style="font-style:normal;font-variant:normal;font-weight:500;font-stretch:normal;font-size:12.7px;font-family:'Cormorant Garamond';-inkscape-font-specification:'Cormorant Garamond Medium'"
           id="path966" />
        <path
           d="m 104.1708,60.83522 q 0,0.3556 0.0635,0.5207 0.0762,0.1651 0.2667,0.2286 0.2032,0.0508 0.635,0.0508 h 1.2192 q 0.762,0 1.2446,-0.4572 0.4953,-0.4699 0.6477,-1.27 0,-0.0381 0.0635,-0.0254 0.0762,0 0.0762,0.0381 -0.1143,1.0795 -0.1143,1.8034 0,0.1016 -0.0381,0.1524 -0.0381,0.0381 -0.1524,0.0381 h -5.8928 q -0.0254,0 -0.0254,-0.0762 0,-0.0762 0.0254,-0.0762 0.4699,0 0.6858,-0.0635 0.2159,-0.0635 0.2921,-0.2413 0.0762,-0.1905 0.0762,-0.5715 v -5.8801 q 0,-0.381 -0.0762,-0.5588 -0.0762,-0.1778 -0.2921,-0.2413 -0.2159,-0.0762 -0.6858,-0.0762 -0.0254,0 -0.0254,-0.0762 0,-0.0762 0.0254,-0.0762 l 0.635,0.0127 q 0.5334,0.0254 0.8763,0.0254 0.3683,0 0.9017,-0.0254 l 0.6223,-0.0127 q 0.0254,0 0.0254,0.0762 0,0.0762 -0.0254,0.0762 -0.4572,0 -0.6858,0.0762 -0.2159,0.0635 -0.2921,0.254 -0.0762,0.1778 -0.0762,0.5588 z"
           style="font-style:normal;font-variant:normal;font-weight:500;font-stretch:normal;font-size:12.7px;font-family:'Cormorant Garamond';-inkscape-font-specification:'Cormorant Garamond Medium'"
           id="path968" />
        <path
           d="m 111.67227,60.88602 q 0,0.3937 0.0762,0.5715 0.0762,0.1778 0.2921,0.2413 0.2159,0.0635 0.6858,0.0635 0.0254,0 0.0254,0.0762 0,0.0762 -0.0254,0.0762 -0.3937,0 -0.6223,-0.0127 l -0.9144,-0.0127 -0.8763,0.0127 q -0.2413,0.0127 -0.6477,0.0127 -0.0381,0 -0.0381,-0.0762 0,-0.0762 0.0381,-0.0762 0.4699,0 0.6858,-0.0635 0.2159,-0.0635 0.2921,-0.2413 0.0889,-0.1905 0.0889,-0.5715 v -5.8801 q 0,-0.381 -0.0889,-0.5588 -0.0762,-0.1778 -0.2921,-0.2413 -0.2159,-0.0762 -0.6858,-0.0762 -0.0381,0 -0.0381,-0.0762 0,-0.0762 0.0381,-0.0762 l 0.6477,0.0127 q 0.5334,0.0254 0.8763,0.0254 0.3683,0 0.9271,-0.0254 l 0.6096,-0.0127 q 0.0254,0 0.0254,0.0762 0,0.0762 -0.0254,0.0762 -0.4572,0 -0.6858,0.0762 -0.2159,0.0762 -0.2921,0.2667 -0.0762,0.1778 -0.0762,0.5588 z"
           style="font-style:normal;font-variant:normal;font-weight:500;font-stretch:normal;font-size:12.7px;font-family:'Cormorant Garamond';-inkscape-font-specification:'Cormorant Garamond Medium'"
           id="path970" />
        <path
           d="m 116.31623,54.21852 q -0.7874,0 -1.2192,0.4318 -0.4191,0.4191 -0.6096,1.3843 -0.0127,0.0381 -0.0889,0.0381 -0.0635,-0.0127 -0.0635,-0.0381 0.0508,-0.3556 0.1143,-1.143 0.0635,-0.7874 0.0635,-1.1938 0,-0.0635 0.0762,-0.0635 0.0762,0 0.0762,0.0635 0,0.2794 0.6858,0.2794 1.0922,0.0381 2.5527,0.0381 0.7493,0 1.5875,-0.0254 l 0.8636,-0.0127 q 0.4572,0 0.6731,-0.0635 0.2286,-0.0635 0.2921,-0.254 0.0127,-0.0508 0.0762,-0.0508 0.0635,0 0.0635,0.0508 -0.0381,0.3683 -0.0762,1.143 -0.0381,0.762 -0.0381,1.2319 0,0.0254 -0.0762,0.0254 -0.0635,0 -0.0762,-0.0254 -0.0508,-0.9779 -0.4572,-1.397 -0.3937,-0.4191 -1.2319,-0.4191 -0.508,0 -0.7366,0.0508 -0.2159,0.0508 -0.3048,0.2159 -0.0762,0.1651 -0.0762,0.5461 v 5.8547 q 0,0.3937 0.0762,0.5715 0.0889,0.1778 0.3302,0.2413 0.254,0.0635 0.8001,0.0635 0.0254,0 0.0254,0.0762 0,0.0762 -0.0254,0.0762 -0.4318,0 -0.6858,-0.0127 l -1.0033,-0.0127 -0.9652,0.0127 q -0.254,0.0127 -0.7112,0.0127 -0.0254,0 -0.0254,-0.0762 0,-0.0762 0.0254,-0.0762 0.5334,0 0.7874,-0.0635 0.254,-0.0635 0.3429,-0.2413 0.0889,-0.1905 0.0889,-0.5715 v -5.8801 q 0,-0.3683 -0.0889,-0.5207 -0.0762,-0.1651 -0.3048,-0.2159 -0.2159,-0.0508 -0.7366,-0.0508 z"
           style="font-style:normal;font-variant:normal;font-weight:500;font-stretch:normal;font-size:12.7px;font-family:'Cormorant Garamond';-inkscape-font-specification:'Cormorant Garamond Medium'"
           id="path972" />
        <path
           d="m 128.54209,60.00972 q 0,-0.0381 0.0762,-0.0254 0.0762,0 0.0762,0.0381 -0.1143,0.8255 -0.1143,1.7018 0,0.1016 -0.0508,0.1524 -0.0381,0.0381 -0.1524,0.0381 h -5.3721 q -0.0254,0 -0.0254,-0.0762 0,-0.0762 0.0254,-0.0762 0.4699,0 0.6858,-0.0635 0.2159,-0.0635 0.2921,-0.2413 0.0762,-0.1905 0.0762,-0.5715 v -5.8801 q 0,-0.381 -0.0762,-0.5588 -0.0762,-0.1778 -0.2921,-0.2413 -0.2159,-0.0762 -0.6858,-0.0762 -0.0254,0 -0.0254,-0.0762 0,-0.0762 0.0254,-0.0762 h 5.1562 q 0.1143,0 0.1143,0.1143 l 0.0254,1.5875 q 0,0.0381 -0.0762,0.0381 -0.0635,0 -0.0635,-0.0381 -0.0762,-0.6858 -0.4699,-1.0541 -0.3937,-0.3683 -1.0287,-0.3683 h -0.6985 q -0.5969,0 -0.7874,0.1651 -0.1905,0.1651 -0.1905,0.635 v 2.5908 h 1.4605 q 0.635,0 0.9144,-0.2159 0.2921,-0.2159 0.2921,-0.6985 0,-0.0254 0.0762,-0.0254 0.0762,0 0.0762,0.0254 l -0.0127,1.0541 q 0,0.3683 0.0127,0.5588 l 0.0127,0.635 q 0,0.0254 -0.0762,0.0254 -0.0762,0 -0.0762,-0.0254 0,-0.5588 -0.2921,-0.8001 -0.2921,-0.254 -0.9525,-0.254 h -1.4351 v 2.9083 q 0,0.3302 0.0762,0.4953 0.0762,0.1651 0.2667,0.2413 0.1905,0.0635 0.5842,0.0635 h 0.9017 q 0.6731,0 1.1176,-0.4191 0.4445,-0.4318 0.6096,-1.2065 z"
           style="font-style:normal;font-variant:normal;font-weight:500;font-stretch:normal;font-size:12.7px;font-family:'Cormorant Garamond';-inkscape-font-specification:'Cormorant Garamond Medium'"
           id="path974" />
        <path
           d="m 135.9377,60.88602 q 0,0.3937 0.0762,0.5715 0.0762,0.1778 0.2921,0.2413 0.2159,0.0635 0.6858,0.0635 0.0254,0 0.0254,0.0762 0,0.0762 -0.0254,0.0762 -0.3937,0 -0.6223,-0.0127 l -0.9144,-0.0127 -0.8763,0.0127 q -0.2413,0.0127 -0.6477,0.0127 -0.0381,0 -0.0381,-0.0762 0,-0.0762 0.0381,-0.0762 0.4699,0 0.6858,-0.0635 0.2159,-0.0635 0.2921,-0.2413 0.0889,-0.1905 0.0889,-0.5715 v -5.8801 q 0,-0.381 -0.0889,-0.5588 -0.0762,-0.1778 -0.2921,-0.2413 -0.2159,-0.0762 -0.6858,-0.0762 -0.0381,0 -0.0381,-0.0762 0,-0.0762 0.0381,-0.0762 l 0.6477,0.0127 q 0.5334,0.0254 0.8763,0.0254 0.3683,0 0.9271,-0.0254 l 0.6096,-0.0127 q 0.0254,0 0.0254,0.0762 0,0.0762 -0.0254,0.0762 -0.4572,0 -0.6858,0.0762 -0.2159,0.0762 -0.2921,0.2667 -0.0762,0.1778 -0.0762,0.5588 z"
           style="font-style:normal;font-variant:normal;font-weight:500;font-stretch:normal;font-size:12.7px;font-family:'Cormorant Garamond';-inkscape-font-specification:'Cormorant Garamond Medium'"
           id="path976" />
        <path
           d="m 147.09677,53.97722 q 0.0381,0 0.0381,0.0762 0,0.0762 -0.0381,0.0762 -0.5207,0 -0.7747,0.3175 -0.2413,0.3048 -0.2413,0.9652 v 6.6548 q 0,0.0381 -0.0635,0.0508 -0.0635,0.0127 -0.0889,-0.0127 l -5.9182,-7.0866 -0.0381,-0.0508 v 5.5245 q 0,0.6604 0.2413,0.9652 0.2413,0.3048 0.7493,0.3048 0.0381,0 0.0381,0.0762 0,0.0762 -0.0381,0.0762 -0.3048,0 -0.4826,-0.0127 l -0.6477,-0.0127 -0.6731,0.0127 q -0.1905,0.0127 -0.5461,0.0127 -0.0254,0 -0.0254,-0.0762 0,-0.0762 0.0254,-0.0762 0.5461,0 0.7874,-0.3048 0.254,-0.3048 0.254,-0.9652 v -5.8547 q -0.5207,-0.508 -1.0541,-0.508 -0.0381,0 -0.0381,-0.0762 0,-0.0762 0.0381,-0.0762 l 0.4699,0.0127 q 0.1524,0.0127 0.4318,0.0127 l 0.5969,-0.0127 q 0.1016,-0.0127 0.2667,-0.0127 0.1016,0 0.1397,0.0508 0.0508,0.0381 0.1524,0.1905 0.1524,0.2286 0.3048,0.4191 l 4.8006,5.8166 v -5.0419 q 0,-0.6604 -0.2286,-0.9652 -0.2286,-0.3175 -0.7493,-0.3175 -0.0254,0 -0.0254,-0.0762 0,-0.0762 0.0254,-0.0762 l 0.4953,0.0127 q 0.4064,0.0254 0.6477,0.0254 0.2413,0 0.6477,-0.0254 z"
           style="font-style:normal;font-variant:normal;font-weight:500;font-stretch:normal;font-size:12.7px;font-family:'Cormorant Garamond';-inkscape-font-specification:'Cormorant Garamond Medium'"
           id="path978" />
        <path
           d="m 156.37622,53.97722 q 0.0381,0 0.0381,0.0762 0,0.0762 -0.0381,0.0762 -0.889,0 -1.3335,1.0922 l -2.6416,6.6802 q -0.0127,0.0508 -0.1397,0.0508 -0.1016,0 -0.1397,-0.0508 l -3.1623,-6.8707 q -0.2286,-0.4826 -0.4699,-0.6858 -0.2286,-0.2159 -0.5969,-0.2159 -0.0381,0 -0.0381,-0.0762 0,-0.0762 0.0381,-0.0762 l 0.4318,0.0127 q 0.3556,0.0254 0.5969,0.0254 0.6096,0 1.2192,-0.0254 0.2032,-0.0127 0.5334,-0.0127 0.0381,0 0.0381,0.0762 0,0.0762 -0.0381,0.0762 -0.7874,0 -0.7874,0.4699 0,0.1778 0.1143,0.4318 l 2.5781,5.6134 2.1717,-5.4864 q 0.1016,-0.2794 0.1016,-0.4572 0,-0.2921 -0.2413,-0.4318 -0.2286,-0.1397 -0.7366,-0.1397 -0.0381,0 -0.0381,-0.0762 0,-0.0762 0.0381,-0.0762 l 0.5588,0.0127 q 0.4572,0.0254 0.8255,0.0254 0.2413,0 0.5969,-0.0254 z"
           style="font-style:normal;font-variant:normal;font-weight:500;font-stretch:normal;font-size:12.7px;font-family:'Cormorant Garamond';-inkscape-font-specification:'Cormorant Garamond Medium'"
           id="path980" />
        <path
           d="m 162.95057,60.00972 q 0,-0.0381 0.0762,-0.0254 0.0762,0 0.0762,0.0381 -0.1143,0.8255 -0.1143,1.7018 0,0.1016 -0.0508,0.1524 -0.0381,0.0381 -0.1524,0.0381 h -5.3721 q -0.0254,0 -0.0254,-0.0762 0,-0.0762 0.0254,-0.0762 0.4699,0 0.6858,-0.0635 0.2159,-0.0635 0.2921,-0.2413 0.0762,-0.1905 0.0762,-0.5715 v -5.8801 q 0,-0.381 -0.0762,-0.5588 -0.0762,-0.1778 -0.2921,-0.2413 -0.2159,-0.0762 -0.6858,-0.0762 -0.0254,0 -0.0254,-0.0762 0,-0.0762 0.0254,-0.0762 h 5.1562 q 0.1143,0 0.1143,0.1143 l 0.0254,1.5875 q 0,0.0381 -0.0762,0.0381 -0.0635,0 -0.0635,-0.0381 -0.0762,-0.6858 -0.4699,-1.0541 -0.3937,-0.3683 -1.0287,-0.3683 h -0.6985 q -0.5969,0 -0.7874,0.1651 -0.1905,0.1651 -0.1905,0.635 v 2.5908 h 1.4605 q 0.635,0 0.9144,-0.2159 0.2921,-0.2159 0.2921,-0.6985 0,-0.0254 0.0762,-0.0254 0.0762,0 0.0762,0.0254 l -0.0127,1.0541 q 0,0.3683 0.0127,0.5588 l 0.0127,0.635 q 0,0.0254 -0.0762,0.0254 -0.0762,0 -0.0762,-0.0254 0,-0.5588 -0.2921,-0.8001 -0.2921,-0.254 -0.9525,-0.254 h -1.4351 v 2.9083 q 0,0.3302 0.0762,0.4953 0.0762,0.1651 0.2667,0.2413 0.1905,0.0635 0.5842,0.0635 h 0.9017 q 0.6731,0 1.1176,-0.4191 0.4445,-0.4318 0.6096,-1.2065 z"
           style="font-style:normal;font-variant:normal;font-weight:500;font-stretch:normal;font-size:12.7px;font-family:'Cormorant Garamond';-inkscape-font-specification:'Cormorant Garamond Medium'"
           id="path982" />
        <path
           d="m 166.15943,55.42502 q 0,0.4826 0.2413,0.8509 0.2413,0.3683 0.5842,0.6223 0.3429,0.254 0.96519,0.6223 0.6477,0.3937 1.016,0.6731 0.3683,0.2794 0.6223,0.6985 0.2667,0.4191 0.2667,0.9906 0,0.6223 -0.3175,1.1176 -0.3048,0.4953 -0.9017,0.7874 -0.5969,0.2794 -1.40969,0.2794 -1.0287,0 -1.8288,-0.4572 -0.0635,-0.0381 -0.0889,-0.0889 -0.0254,-0.0508 -0.0381,-0.1524 l -0.1397,-1.778 q -0.0127,-0.0508 0.0508,-0.0635 0.0762,-0.0127 0.0889,0.0381 0.254,0.9398 0.8001,1.6129 0.5461,0.6604 1.44779,0.6604 0.6223,0 1.0414,-0.3302 0.4191,-0.3302 0.4191,-1.0795 0,-0.5715 -0.254,-0.9779 -0.254,-0.4191 -0.6223,-0.6985 -0.3556,-0.2921 -0.97789,-0.6604 -0.6223,-0.3937 -0.9652,-0.6477 -0.3429,-0.2667 -0.5842,-0.6604 -0.2413,-0.4064 -0.2413,-0.9525 0,-0.6477 0.3429,-1.0922 0.3429,-0.4572 0.9017,-0.6731 0.5588,-0.2286 1.18109,-0.2286 0.7874,0 1.5113,0.2921 0.1905,0.0889 0.1905,0.2286 l 0.0762,1.524 q 0,0.0508 -0.0762,0.0635 -0.0635,0.0127 -0.0762,-0.0381 -0.127,-0.6731 -0.5715,-1.27 -0.4445,-0.5969 -1.2827,-0.5969 -0.67309,0 -1.02869,0.3937 -0.3429,0.3937 -0.3429,0.9906 z"
           style="font-style:normal;font-variant:normal;font-weight:500;font-stretch:normal;font-size:12.7px;font-family:'Cormorant Garamond';-inkscape-font-specification:'Cormorant Garamond Medium'"
           id="path984" />
        <path
           d="m 173.53388,54.21852 q -0.7874,0 -1.2192,0.4318 -0.4191,0.4191 -0.6096,1.3843 -0.0127,0.0381 -0.0889,0.0381 -0.0635,-0.0127 -0.0635,-0.0381 0.0508,-0.3556 0.1143,-1.143 0.0635,-0.7874 0.0635,-1.1938 0,-0.0635 0.0762,-0.0635 0.0762,0 0.0762,0.0635 0,0.2794 0.6858,0.2794 1.0922,0.0381 2.5527,0.0381 0.7493,0 1.5875,-0.0254 l 0.8636,-0.0127 q 0.4572,0 0.6731,-0.0635 0.2286,-0.0635 0.2921,-0.254 0.0127,-0.0508 0.0762,-0.0508 0.0635,0 0.0635,0.0508 -0.0381,0.3683 -0.0762,1.143 -0.0381,0.762 -0.0381,1.2319 0,0.0254 -0.0762,0.0254 -0.0635,0 -0.0762,-0.0254 -0.0508,-0.9779 -0.4572,-1.397 -0.3937,-0.4191 -1.2319,-0.4191 -0.508,0 -0.7366,0.0508 -0.2159,0.0508 -0.3048,0.2159 -0.0762,0.1651 -0.0762,0.5461 v 5.8547 q 0,0.3937 0.0762,0.5715 0.0889,0.1778 0.3302,0.2413 0.254,0.0635 0.8001,0.0635 0.0254,0 0.0254,0.0762 0,0.0762 -0.0254,0.0762 -0.4318,0 -0.6858,-0.0127 l -1.0033,-0.0127 -0.9652,0.0127 q -0.254,0.0127 -0.7112,0.0127 -0.0254,0 -0.0254,-0.0762 0,-0.0762 0.0254,-0.0762 0.5334,0 0.7874,-0.0635 0.254,-0.0635 0.3429,-0.2413 0.0889,-0.1905 0.0889,-0.5715 v -5.8801 q 0,-0.3683 -0.0889,-0.5207 -0.0762,-0.1651 -0.3048,-0.2159 -0.2159,-0.0508 -0.7366,-0.0508 z"
           style="font-style:normal;font-variant:normal;font-weight:500;font-stretch:normal;font-size:12.7px;font-family:'Cormorant Garamond';-inkscape-font-specification:'Cormorant Garamond Medium'"
           id="path986" />
        <path
           d="m 184.14682,62.06712 q -1.1811,0 -2.1082,-0.5461 -0.9144,-0.5588 -1.4224,-1.4986 -0.4953,-0.9525 -0.4953,-2.0701 0,-1.3081 0.6604,-2.2352 0.6604,-0.9398 1.6891,-1.4097 1.0414,-0.4699 2.1209,-0.4699 1.2065,0 2.1209,0.5715 0.9144,0.5588 1.397,1.4859 0.4953,0.9271 0.4953,1.9685 0,1.1557 -0.6096,2.1209 -0.6096,0.9652 -1.6383,1.524 -1.016,0.5588 -2.2098,0.5588 z m 0.4445,-0.2794 q 0.8382,0 1.4986,-0.4191 0.6731,-0.4191 1.0541,-1.2192 0.3937,-0.8128 0.3937,-1.9304 0,-1.1811 -0.4318,-2.1082 -0.4191,-0.9271 -1.2065,-1.4478 -0.7874,-0.5207 -1.8288,-0.5207 -1.3589,0 -2.1209,0.9017 -0.762,0.889 -0.762,2.4638 0,1.1938 0.4318,2.1717 0.4318,0.9779 1.2065,1.5494 0.7747,0.5588 1.7653,0.5588 z"
           style="font-style:normal;font-variant:normal;font-weight:500;font-stretch:normal;font-size:12.7px;font-family:'Cormorant Garamond';-inkscape-font-specification:'Cormorant Garamond Medium'"
           id="path988" />
        <path
           d="m 198.48087,61.76232 q 0.0381,0 0.0381,0.0762 0,0.0762 -0.0381,0.0762 h -1.7399 q -0.3048,0 -1.1557,-1.0287 -0.8382,-1.0414 -2.0574,-2.8956 -0.3429,0.0635 -0.635,0.0635 -0.0635,0 -0.5969,-0.0381 v 2.8702 q 0,0.3937 0.0762,0.5715 0.0762,0.1778 0.2921,0.2413 0.2159,0.0635 0.6858,0.0635 0.0381,0 0.0381,0.0762 0,0.0762 -0.0381,0.0762 -0.4064,0 -0.6223,-0.0127 l -0.9017,-0.0127 -0.8763,0.0127 q -0.2413,0.0127 -0.6477,0.0127 -0.0254,0 -0.0254,-0.0762 0,-0.0762 0.0254,-0.0762 0.4699,0 0.6858,-0.0635 0.2159,-0.0635 0.2921,-0.2413 0.0889,-0.1905 0.0889,-0.5715 v -5.8801 q 0,-0.381 -0.0762,-0.5588 -0.0762,-0.1778 -0.2921,-0.2413 -0.2159,-0.0762 -0.6731,-0.0762 -0.0381,0 -0.0381,-0.0762 0,-0.0762 0.0381,-0.0762 l 0.6223,0.0127 q 0.5334,0.0254 0.8763,0.0254 0.2667,0 0.508,-0.0127 0.2413,-0.0127 0.4191,-0.0254 0.4699,-0.0381 0.8763,-0.0381 1.016,0 1.5748,0.4572 0.5715,0.4445 0.5715,1.2065 0,0.6858 -0.4064,1.2446 -0.3937,0.5588 -1.0541,0.8763 1.0668,1.5367 1.778,2.4003 0.7239,0.8636 1.2827,1.2573 0.5715,0.381 1.1049,0.381 z m -6.1849,-4.0513 q 0.3556,0.0381 0.7493,0.0381 0.9525,0 1.3589,-0.4191 0.4064,-0.4318 0.4064,-1.3335 0,-1.0033 -0.4191,-1.4224 -0.4191,-0.4318 -1.2065,-0.4318 -0.4953,0 -0.6985,0.1905 -0.1905,0.1778 -0.1905,0.6985 z"
           style="font-style:normal;font-variant:normal;font-weight:500;font-stretch:normal;font-size:12.7px;font-family:'Cormorant Garamond';-inkscape-font-specification:'Cormorant Garamond Medium'"
           id="path990" />
      </g>
    </g>
  </g>
</svg>
