<?xml version="1.0" encoding="UTF-8" standalone="no"?>
<svg
   xmlns:dc="http://purl.org/dc/elements/1.1/"
   xmlns:cc="http://creativecommons.org/ns#"
   xmlns:rdf="http://www.w3.org/1999/02/22-rdf-syntax-ns#"
   xmlns:svg="http://www.w3.org/2000/svg"
   xmlns="http://www.w3.org/2000/svg"
   xmlns:sodipodi="http://sodipodi.sourceforge.net/DTD/sodipodi-0.dtd"
   xmlns:inkscape="http://www.inkscape.org/namespaces/inkscape"
   width="107.55441mm"
   height="18mm"
   viewBox="0 0 107.55441 18"
   version="1.1"
   id="svg8"
   inkscape:version="1.0.2 (e86c870879, 2021-01-15, custom)"
   sodipodi:docname="logo-full-2.svg">
  <defs
     id="defs2">
    <rect
       x="84.063271"
       y="50.328396"
       width="131.95947"
       height="20.782351"
       id="rect870" />
    <rect
       x="84.063271"
       y="50.328396"
       width="131.95947"
       height="20.782351"
       id="rect870-7" />
    <rect
       x="84.063271"
       y="50.328396"
       width="131.95947"
       height="20.782351"
       id="rect1473" />
    <rect
       x="84.063271"
       y="50.328396"
       width="131.95947"
       height="20.782351"
       id="rect870-1" />
    <rect
       x="84.063271"
       y="50.328396"
       width="131.95947"
       height="20.782351"
       id="rect1473-1" />
    <rect
       x="84.063271"
       y="50.328396"
       width="131.95947"
       height="20.782351"
       id="rect870-1-8" />
    <rect
       x="84.063271"
       y="50.328396"
       width="131.95947"
       height="20.782351"
       id="rect1531" />
  </defs>
  <sodipodi:namedview
     id="base"
     pagecolor="#ffffff"
     bordercolor="#666666"
     borderopacity="1.0"
     inkscape:pageopacity="0.0"
     inkscape:pageshadow="2"
     inkscape:zoom="1.5659322"
     inkscape:cx="181.80947"
     inkscape:cy="123.51734"
     inkscape:document-units="mm"
     inkscape:current-layer="g864"
     inkscape:document-rotation="0"
     showgrid="false"
     fit-margin-top="0"
     fit-margin-left="0"
     fit-margin-right="0"
     fit-margin-bottom="0"
     inkscape:window-width="1267"
     inkscape:window-height="1041"
     inkscape:window-x="227"
     inkscape:window-y="40"
     inkscape:window-maximized="0">
    <inkscape:grid
       type="xygrid"
       id="grid833"
       originx="-27.78124"
       originy="-54.901068" />
  </sodipodi:namedview>
  <metadata
     id="metadata5">
    <rdf:RDF>
      <cc:Work
         rdf:about="">
        <dc:format>image/svg+xml</dc:format>
        <dc:type
           rdf:resource="http://purl.org/dc/dcmitype/StillImage" />
        <dc:title></dc:title>
      </cc:Work>
    </rdf:RDF>
  </metadata>
  <g
     inkscape:label="Layer 1"
     inkscape:groupmode="layer"
     id="layer1"
     transform="translate(-27.781247,-54.901041)">
    <g
       id="g864"
       transform="translate(-22.489585,7.2760413)">
      <rect
         style="fill:#2c5aa0;fill-opacity:1;stroke-width:0.248422"
         id="rect837"
         width="24"
         height="18"
         x="50.270832"
         y="47.625"
         ry="1.4578177"
         rx="1.3606299" />
      <rect
         style="fill:#ffffff;fill-opacity:1;stroke-width:0.203905"
         id="rect837-0"
         width="22"
         height="13.229165"
         x="51.270832"
         y="48.624958"
         ry="1"
         rx="0.92388445" />
      <path
         style="fill:none;stroke:#1d4f91;stroke-width:1.5;stroke-linecap:round;stroke-linejoin:round;stroke-miterlimit:4;stroke-dasharray:none;stroke-opacity:1"
         d="m 55.656249,58.546833 2.645833,-2.645834 1.322917,1.322917 2.645833,-2.645833 2.645833,2.645833 3.96875,-5.291667"
         id="path859" />
      <g
         aria-label="polite investor"
         transform="translate(-2.5974449,-1.0357872)"
         id="text868-4-3"
         style="font-style:normal;font-variant:normal;font-weight:500;font-stretch:normal;font-size:11.2889px;line-height:1.25;font-family:Inter;-inkscape-font-specification:'Inter Medium';letter-spacing:0px;white-space:pre;shape-inside:url(#rect870-1-8)">
        <path
           d="m 84.868277,63.084751 v -8.466675 h 1.170582 v 0.998202 h 0.100221 q 0.10423,-0.192425 0.300664,-0.444982 0.196433,-0.252557 0.545202,-0.440973 0.348769,-0.192424 0.922034,-0.192424 0.745645,0 1.330936,0.376831 0.585291,0.376831 0.918025,1.086396 0.336742,0.709566 0.336742,1.707767 0,0.998202 -0.332734,1.711776 -0.332734,0.709565 -0.914016,1.094414 -0.581282,0.38084 -1.326927,0.38084 -0.561237,0 -0.918024,-0.188416 -0.352779,-0.188415 -0.553221,-0.440972 -0.200442,-0.252557 -0.308681,-0.448991 h -0.07216 v 3.267207 z m 1.174591,-5.387884 q 0,0.649432 0.188416,1.138511 0.188415,0.489079 0.545202,0.765689 0.356787,0.272601 0.873928,0.272601 0.537185,0 0.897981,-0.284628 0.360796,-0.288636 0.545202,-0.781724 0.188416,-0.493087 0.188416,-1.110449 0,-0.609344 -0.184407,-1.094414 -0.180398,-0.48507 -0.545202,-0.765689 -0.360796,-0.280619 -0.90199,-0.280619 -0.52115,0 -0.881945,0.268592 -0.356787,0.268593 -0.541194,0.749654 -0.184407,0.481061 -0.184407,1.122476 z"
           style="font-style:normal;font-variant:normal;font-weight:500;font-stretch:normal;font-size:11.2889px;font-family:Inter;-inkscape-font-specification:'Inter Medium'"
           id="path2785" />
        <path
           d="m 94.429345,60.899932 q -0.86591,0 -1.511334,-0.396875 -0.645423,-0.396876 -1.00221,-1.11045 -0.356787,-0.713574 -0.356787,-1.667678 0,-0.958114 0.356787,-1.675696 0.356787,-0.717583 1.00221,-1.114459 0.645424,-0.396875 1.511334,-0.396875 0.86591,0 1.511334,0.396875 0.645423,0.396876 1.00221,1.114459 0.356787,0.717582 0.356787,1.675696 0,0.954104 -0.356787,1.667678 -0.356787,0.713574 -1.00221,1.11045 -0.645424,0.396875 -1.511334,0.396875 z m 0.004,-1.00622 q 0.561238,0 0.930051,-0.296654 0.368814,-0.296654 0.545203,-0.789742 0.180398,-0.493087 0.180398,-1.086396 0,-0.5893 -0.180398,-1.082388 -0.176389,-0.497096 -0.545203,-0.797759 -0.368813,-0.300663 -0.930051,-0.300663 -0.565247,0 -0.938069,0.300663 -0.368814,0.300663 -0.549212,0.797759 -0.176389,0.493088 -0.176389,1.082388 0,0.593309 0.176389,1.086396 0.180398,0.493088 0.549212,0.789742 0.372822,0.296654 0.938069,0.296654 z"
           style="font-style:normal;font-variant:normal;font-weight:500;font-stretch:normal;font-size:11.2889px;font-family:Inter;-inkscape-font-specification:'Inter Medium'"
           id="path2787" />
        <path
           d="m 99.833257,52.565548 v 8.21011 h -1.198644 v -8.21011 z"
           style="font-style:normal;font-variant:normal;font-weight:500;font-stretch:normal;font-size:11.2889px;font-family:Inter;-inkscape-font-specification:'Inter Medium'"
           id="path2789" />
        <path
           d="m 101.4448,60.775658 v -6.157582 h 1.19865 v 6.157582 z m 0.60534,-7.107678 q -0.31269,0 -0.53719,-0.20846 -0.22048,-0.212468 -0.22048,-0.505114 0,-0.296654 0.22048,-0.505114 0.2245,-0.212469 0.53719,-0.212469 0.31269,0 0.53317,0.212469 0.2245,0.20846 0.2245,0.505114 0,0.292646 -0.2245,0.505114 -0.22048,0.20846 -0.53317,0.20846 z"
           style="font-style:normal;font-variant:normal;font-weight:500;font-stretch:normal;font-size:11.2889px;font-family:Inter;-inkscape-font-specification:'Inter Medium'"
           id="path2791" />
        <path
           d="m 107.12933,54.618076 v 0.962122 h -3.36342 v -0.962122 z m -2.46143,-1.475254 h 1.19865 v 5.824848 q 0,0.348769 0.10422,0.525158 0.10423,0.17238 0.2686,0.236522 0.16837,0.06013 0.3648,0.06013 0.14432,0 0.25256,-0.02004 0.10824,-0.02004 0.16837,-0.03207 l 0.21648,0.990184 q -0.10423,0.04009 -0.29666,0.08018 -0.19242,0.0441 -0.48106,0.04811 -0.47304,0.008 -0.88194,-0.168372 -0.4089,-0.176389 -0.66146,-0.545202 -0.25256,-0.368814 -0.25256,-0.926043 z"
           style="font-style:normal;font-variant:normal;font-weight:500;font-stretch:normal;font-size:11.2889px;font-family:Inter;-inkscape-font-specification:'Inter Medium'"
           id="path2793" />
        <path
           d="m 111.04195,60.899932 q -0.91001,0 -1.56746,-0.388858 -0.65344,-0.392866 -1.01023,-1.102431 -0.35277,-0.713574 -0.35277,-1.671688 0,-0.946087 0.35277,-1.667678 0.35679,-0.721592 0.9942,-1.126485 0.64141,-0.404893 1.4993,-0.404893 0.52115,0 1.01023,0.17238 0.48908,0.17238 0.87794,0.541194 0.38886,0.368813 0.61335,0.958113 0.2245,0.585291 0.2245,1.423139 v 0.424938 h -4.8948 v -0.897981 h 3.72021 q 0,-0.473044 -0.19243,-0.837848 -0.19242,-0.368814 -0.54119,-0.581282 -0.34476,-0.212469 -0.80979,-0.212469 -0.50511,0 -0.88194,0.248548 -0.37283,0.24454 -0.57728,0.641415 -0.20044,0.392867 -0.20044,0.853883 v 0.701548 q 0,0.617362 0.21648,1.050317 0.22049,0.432955 0.61335,0.661459 0.39287,0.224495 0.91803,0.224495 0.34075,0 0.62137,-0.09621 0.28062,-0.100221 0.48507,-0.296655 0.20445,-0.196433 0.31269,-0.48507 l 1.1345,0.204451 q -0.1363,0.501106 -0.48908,0.877937 -0.34877,0.372822 -0.87794,0.581282 -0.52515,0.204451 -1.19864,0.204451 z"
           style="font-style:normal;font-variant:normal;font-weight:500;font-stretch:normal;font-size:11.2889px;font-family:Inter;-inkscape-font-specification:'Inter Medium'"
           id="path2795" />
        <path
           d="m 118.00929,60.775658 v -6.157582 h 1.19865 v 6.157582 z m 0.60534,-7.107678 q -0.31269,0 -0.53719,-0.20846 -0.22048,-0.212468 -0.22048,-0.505114 0,-0.296654 0.22048,-0.505114 0.2245,-0.212469 0.53719,-0.212469 0.31269,0 0.53317,0.212469 0.2245,0.20846 0.2245,0.505114 0,0.292646 -0.2245,0.505114 -0.22048,0.20846 -0.53317,0.20846 z"
           style="font-style:normal;font-variant:normal;font-weight:500;font-stretch:normal;font-size:11.2889px;font-family:Inter;-inkscape-font-specification:'Inter Medium'"
           id="path2797" />
        <path
           d="m 122.01812,57.119593 v 3.656065 h -1.19864 v -6.157582 h 1.15054 v 1.00221 h 0.0762 q 0.21246,-0.489078 0.66546,-0.785733 0.45701,-0.296654 1.15054,-0.296654 0.62939,0 1.10243,0.264584 0.47305,0.260574 0.73362,0.777715 0.26058,0.517141 0.26058,1.278821 v 3.916639 h -1.19865 v -3.772321 q 0,-0.669477 -0.34877,-1.046308 -0.34877,-0.38084 -0.95811,-0.38084 -0.41692,0 -0.74164,0.180398 -0.3207,0.180398 -0.50912,0.529167 -0.18441,0.344761 -0.18441,0.833839 z"
           style="font-style:normal;font-variant:normal;font-weight:500;font-stretch:normal;font-size:11.2889px;font-family:Inter;-inkscape-font-specification:'Inter Medium'"
           id="path2799" />
        <path
           d="m 132.60544,54.618076 -2.23293,6.157582 h -1.28283 l -2.23693,-6.157582 h 1.28684 l 1.55944,4.738452 h 0.0641 l 1.55543,-4.738452 z"
           style="font-style:normal;font-variant:normal;font-weight:500;font-stretch:normal;font-size:11.2889px;font-family:Inter;-inkscape-font-specification:'Inter Medium'"
           id="path2801" />
        <path
           d="m 136.16928,60.899932 q -0.91001,0 -1.56746,-0.388858 -0.65344,-0.392866 -1.01023,-1.102431 -0.35278,-0.713574 -0.35278,-1.671688 0,-0.946087 0.35278,-1.667678 0.35679,-0.721592 0.99419,-1.126485 0.64142,-0.404893 1.49931,-0.404893 0.52115,0 1.01023,0.17238 0.48908,0.17238 0.87793,0.541194 0.38886,0.368813 0.61336,0.958113 0.22449,0.585291 0.22449,1.423139 v 0.424938 h -4.89479 v -0.897981 h 3.7202 q 0,-0.473044 -0.19242,-0.837848 -0.19243,-0.368814 -0.5412,-0.581282 -0.34476,-0.212469 -0.80978,-0.212469 -0.50512,0 -0.88195,0.248548 -0.37282,0.24454 -0.57727,0.641415 -0.20044,0.392867 -0.20044,0.853883 v 0.701548 q 0,0.617362 0.21647,1.050317 0.22049,0.432955 0.61336,0.661459 0.39286,0.224495 0.91802,0.224495 0.34075,0 0.62137,-0.09621 0.28062,-0.100221 0.48507,-0.296655 0.20445,-0.196433 0.31269,-0.48507 l 1.1345,0.204451 q -0.1363,0.501106 -0.48907,0.877937 -0.34877,0.372822 -0.87794,0.581282 -0.52516,0.204451 -1.19864,0.204451 z"
           style="font-style:normal;font-variant:normal;font-weight:500;font-stretch:normal;font-size:11.2889px;font-family:Inter;-inkscape-font-specification:'Inter Medium'"
           id="path2803" />
        <path
           d="m 144.76021,56.121392 -1.0864,0.192424 q -0.0682,-0.20846 -0.21647,-0.396875 -0.14432,-0.188416 -0.39287,-0.308681 -0.24855,-0.120265 -0.62137,-0.120265 -0.50912,0 -0.84987,0.228504 -0.34076,0.224495 -0.34076,0.581282 0,0.308681 0.22851,0.497096 0.2285,0.188416 0.73762,0.308681 l 0.97816,0.224495 q 0.84988,0.196434 1.2668,0.605335 0.41692,0.408902 0.41692,1.062344 0,0.55322 -0.32071,0.986175 -0.3167,0.428946 -0.88596,0.673486 -0.56524,0.244539 -1.31089,0.244539 -1.03428,0 -1.68772,-0.440973 -0.65344,-0.444981 -0.80177,-1.262785 l 1.15856,-0.176389 q 0.10824,0.452999 0.44498,0.685512 0.33674,0.228504 0.87794,0.228504 0.5893,0 0.94207,-0.24454 0.35278,-0.248548 0.35278,-0.605335 0,-0.288636 -0.21648,-0.48507 -0.21246,-0.196433 -0.65344,-0.296654 l -1.0423,-0.228504 q -0.8619,-0.196433 -1.27481,-0.625379 -0.4089,-0.428947 -0.4089,-1.086397 0,-0.545202 0.30467,-0.954104 0.30467,-0.408902 0.84186,-0.637406 0.53718,-0.232513 1.23071,-0.232513 0.99821,0 1.57147,0.432955 0.57326,0.428946 0.75767,1.150538 z"
           style="font-style:normal;font-variant:normal;font-weight:500;font-stretch:normal;font-size:11.2889px;font-family:Inter;-inkscape-font-specification:'Inter Medium'"
           id="path2805" />
        <path
           d="m 149.06971,54.618076 v 0.962122 h -3.36342 v -0.962122 z m -2.46143,-1.475254 h 1.19864 v 5.824848 q 0,0.348769 0.10423,0.525158 0.10423,0.17238 0.2686,0.236522 0.16837,0.06013 0.3648,0.06013 0.14432,0 0.25256,-0.02004 0.10824,-0.02004 0.16837,-0.03207 l 0.21648,0.990184 q -0.10423,0.04009 -0.29666,0.08018 -0.19242,0.0441 -0.48106,0.04811 -0.47304,0.008 -0.88194,-0.168372 -0.40891,-0.176389 -0.66146,-0.545202 -0.25256,-0.368814 -0.25256,-0.926043 z"
           style="font-style:normal;font-variant:normal;font-weight:500;font-stretch:normal;font-size:11.2889px;font-family:Inter;-inkscape-font-specification:'Inter Medium'"
           id="path2807" />
        <path
           d="m 152.9222,60.899932 q -0.86591,0 -1.51134,-0.396875 -0.64542,-0.396876 -1.00221,-1.11045 -0.35679,-0.713574 -0.35679,-1.667678 0,-0.958114 0.35679,-1.675696 0.35679,-0.717583 1.00221,-1.114459 0.64543,-0.396875 1.51134,-0.396875 0.86591,0 1.51133,0.396875 0.64542,0.396876 1.00221,1.114459 0.35679,0.717582 0.35679,1.675696 0,0.954104 -0.35679,1.667678 -0.35679,0.713574 -1.00221,1.11045 -0.64542,0.396875 -1.51133,0.396875 z m 0.004,-1.00622 q 0.56124,0 0.93006,-0.296654 0.36881,-0.296654 0.5452,-0.789742 0.1804,-0.493087 0.1804,-1.086396 0,-0.5893 -0.1804,-1.082388 -0.17639,-0.497096 -0.5452,-0.797759 -0.36882,-0.300663 -0.93006,-0.300663 -0.56524,0 -0.93806,0.300663 -0.36882,0.300663 -0.54922,0.797759 -0.17638,0.493088 -0.17638,1.082388 0,0.593309 0.17638,1.086396 0.1804,0.493088 0.54922,0.789742 0.37282,0.296654 0.93806,0.296654 z"
           style="font-style:normal;font-variant:normal;font-weight:500;font-stretch:normal;font-size:11.2889px;font-family:Inter;-inkscape-font-specification:'Inter Medium'"
           id="path2809" />
        <path
           d="m 157.12746,60.775658 v -6.157582 h 1.15856 v 0.978157 h 0.0641 q 0.16837,-0.497096 0.59331,-0.781724 0.42894,-0.288637 0.97014,-0.288637 0.11225,0 0.26458,0.008 0.15635,0.008 0.24454,0.02004 v 1.146529 q -0.0722,-0.02004 -0.25656,-0.0441 -0.18441,-0.02806 -0.36882,-0.02806 -0.42494,0 -0.75767,0.180398 -0.32872,0.176389 -0.52115,0.493088 -0.19242,0.312689 -0.19242,0.713574 v 3.760294 z"
           style="font-style:normal;font-variant:normal;font-weight:500;font-stretch:normal;font-size:11.2889px;font-family:Inter;-inkscape-font-specification:'Inter Medium'"
           id="path2811" />
      </g>
    </g>
  </g>
</svg>
