<?xml version="1.0" encoding="UTF-8" standalone="no"?>
<svg
   xmlns:dc="http://purl.org/dc/elements/1.1/"
   xmlns:cc="http://creativecommons.org/ns#"
   xmlns:rdf="http://www.w3.org/1999/02/22-rdf-syntax-ns#"
   xmlns:svg="http://www.w3.org/2000/svg"
   xmlns="http://www.w3.org/2000/svg"
   width="18.999996mm"
   height="18.999996mm"
   viewBox="0 0 18.999996 18.999996"
   version="1.1"
   id="svg8">
  <defs
     id="defs2" />
  <metadata
     id="metadata5">
    <rdf:RDF>
      <cc:Work
         rdf:about="">
        <dc:format>image/svg+xml</dc:format>
        <dc:type
           rdf:resource="http://purl.org/dc/dcmitype/StillImage" />
        <dc:title></dc:title>
      </cc:Work>
    </rdf:RDF>
  </metadata>
  <g
     id="layer1"
     transform="translate(-17.020844,-220.76401)">
    <circle
       style="opacity:1;fill:#ffffff;fill-opacity:1;stroke:#00d4aa;stroke-width:1.89472;stroke-linecap:round;stroke-linejoin:miter;stroke-miterlimit:4;stroke-dasharray:none;stroke-opacity:1;paint-order:stroke markers fill"
       id="path1487"
       cx="26.520842"
       cy="230.26401"
       r="8.0526381" />
    <g
       aria-label="pi"
       transform="matrix(0.26458333,0,0,0.26458333,5.3098024,122.66502)"
       id="flowRoot815-4-6"
       style="font-style:normal;font-variant:normal;font-weight:normal;font-stretch:normal;font-size:40px;line-height:125%;font-family:russo;-inkscape-font-specification:russo;letter-spacing:0px;word-spacing:0px;fill:#00d4aa;fill-opacity:1;stroke:none;stroke-width:1px;stroke-linecap:butt;stroke-linejoin:miter;stroke-opacity:1">
      <path
         d="m 68.147734,398.81336 q 1.08,-1.88 3.2,-3.12 2.16,-1.28 5,-1.28 2.92,0 5.28,1.4 2.4,1.4 3.76,3.96 1.36,2.52 1.36,5.88 0,3.32 -1.36,5.92 -1.36,2.6 -3.76,4.04 -2.36,1.44 -5.28,1.44 -2.8,0 -4.96,-1.24 -2.12,-1.28 -3.24,-3.16 v 14.44 h -3.64 v -32.32 h 3.64 z m 14.88,6.84 q 0,-2.48 -1,-4.32 -1,-1.84 -2.72,-2.8 -1.68,-0.96 -3.72,-0.96 -2,0 -3.72,1 -1.68,0.96 -2.72,2.84 -1,1.84 -1,4.28 0,2.48 1,4.36 1.04,1.84 2.72,2.84 1.72,0.96 3.72,0.96 2.04,0 3.72,-0.96 1.72,-1 2.72,-2.84 1,-1.88 1,-4.4 z"
         style="font-style:normal;font-variant:normal;font-weight:normal;font-stretch:normal;font-family:Poppins;-inkscape-font-specification:Poppins;fill:#00d4aa;fill-opacity:1"
         id="path836" />
      <path
         d="m 93.427682,391.21336 q -1.04,0 -1.76,-0.72 -0.72,-0.72 -0.72,-1.76 0,-1.04 0.72,-1.76 0.72,-0.72 1.76,-0.72 1,0 1.68,0.72 0.72,0.72 0.72,1.76 0,1.04 -0.72,1.76 -0.68,0.72 -1.68,0.72 z m 1.76,3.56 v 21.92 h -3.64 v -21.92 z"
         style="fill:#000000"
         id="path838" />
    </g>
  </g>
</svg>
